<mxfile host="app.diagrams.net" modified="2023-12-29T08:10:26.561Z" agent="Mozilla/5.0 (Windows NT 10.0; Win64; x64) AppleWebKit/537.36 (KHTML, like Gecko) Chrome/120.0.0.0 Safari/537.36 OPR/106.0.0.0 (Edition Yx 08)" version="22.1.15" etag="IouD5yDtZdM2PyKM8zkW" type="github">
  <diagram name="Страница — 1" id="gArGvUGdJyavKTiA5uDM">
    <mxGraphModel>
      <root>
        <mxCell id="0" />
        <mxCell id="1" parent="0" />
      </root>
    </mxGraphModel>
  </diagram>
</mxfile>
